<svg fill="none" xmlns="http://www.w3.org/2000/svg" viewBox="0 0 114 25">
    <path d="M3.5 6.7v1.9h.4c.5-1.2 1.6-2.1 3.4-2.1 1.6 0 2.8.9 3.4 2.2h.3c.6-1.2 1.6-2.2 3.6-2.2 2.3 0 4.2 1.8 4.2 4.4v8.5h-3.2v-8.3c0-1.2-.8-1.8-2.1-1.8s-2.3.8-2.3 2.4v7.7H8v-8.3c0-1.2-.8-1.8-2.1-1.8s-2.3.8-2.3 2.4v7.7H.3V6.7h3.2zm36.8 0v2.1h.4c.5-1.2 1.7-2.3 4-2.3 2.8 0 5 2 5 5.3v7.6h-3.2v-7.3c0-1.8-1-2.8-2.9-2.8-2.1 0-3.2 1.3-3.2 3.5v6.6h-3.2V6.7h3.1zM53.5.8c1.3 0 2.3.9 2.3 2.2 0 1.3-1 2.2-2.3 2.2-1.3 0-2.3-.9-2.3-2.2 0-1.3 1.1-2.2 2.3-2.2zm1.7 18.6H52V6.7h3.2v12.7zm7.5-13.1c3 0 5.1 1.4 6.5 2.9L67 11.1C65.6 9.5 64.2 9 62.9 9c-1.3 0-1.9.5-1.9 1.2s.6 1.1 1.8 1.3l1.5.3c2.8.5 5 1.4 5 3.9s-2.3 4.2-5.4 4.2c-3.3 0-5.7-1.7-7-3.7l2.5-1.6c1.2 2.1 2.8 2.6 4.4 2.6 1.5 0 2.3-.6 2.3-1.4 0-.8-.7-1.1-1.9-1.3l-1.5-.3c-3-.5-4.8-1.6-4.8-4s1.9-3.9 4.8-3.9zm11.5.4v2.1h.4c.5-1.2 1.7-2.3 4-2.3 2.8 0 5 2 5 5.3v7.6h-3.2v-7.3c0-1.8-1-2.8-2.9-2.8-2.1 0-3.2 1.3-3.2 3.5v6.6H71V6.7h3.2zm17.7-.4c3.4 0 5.8 2 5.8 5.1v8h-3.2v-1.8h-.4c-.4.8-1.3 2.2-4 2.2-2.9 0-4.8-1.5-4.8-4 0-2 1.8-3.4 4.2-3.7l4.9-.5v-.4c0-1.2-.9-2.2-2.7-2.2-1.8 0-2.8 1-3.5 2.5l-2.6-1.6c1-1.5 2.9-3.6 6.3-3.6zm-1 10.8c2.3 0 3.5-1.3 3.5-3.1v-.3l-3.9.5c-1.2.2-1.8.7-1.8 1.4 0 .9.7 1.5 2.2 1.5zm8.9-10.4h3.2v1.8h.4c.7-1.1 1.8-2.2 4.1-2.2 3.2 0 5.8 2.8 5.8 6.7 0 3.9-2.7 6.7-5.8 6.7-2.3 0-3.4-1.1-4.1-2.2h-.3v6.9h-3.2l-.1-17.7zm10.2 6.4c0-2.5-1.5-3.8-3.5-3.8s-3.5 1.4-3.5 3.8 1.5 3.8 3.5 3.8 3.5-1.4 3.5-3.8zM28 20.5c4.1974 0 7.6-3.4026 7.6-7.6S32.1974 5.3 28 5.3s-7.6 3.4026-7.6 7.6 3.4026 7.6 7.6 7.6z" fill="#66F"/>
    <path d="M25 19.911c-3.9-1.6-5.7-6.1-4-10 1.7-3.9 6.1-5.7 10-4l-6 14z" fill="#7196FF"/>
</svg>
